<?xml version="1.0" encoding="utf-8"?>
<!-- Generator: Adobe Illustrator 23.0.6, SVG Export Plug-In . SVG Version: 6.00 Build 0)  -->
<svg version="1.1" id="Layer_1" xmlns="http://www.w3.org/2000/svg" xmlns:xlink="http://www.w3.org/1999/xlink" x="0px" y="0px"
	 viewBox="0 0 915 216" style="enable-background:new 0 0 915 216;" xml:space="preserve">
<style type="text/css">
	.st0{fill:url(#SVGID_1_);}
	.st1{fill:url(#SVGID_2_);}
	.st2{fill:url(#SVGID_3_);}
	.st3{fill:url(#SVGID_4_);}
	.st4{fill:url(#SVGID_5_);}
	.st5{fill:url(#SVGID_6_);}
	.st6{fill:url(#SVGID_7_);}
	.st7{fill:url(#SVGID_8_);}
	.st8{fill:url(#SVGID_9_);}
	.st9{fill:url(#SVGID_10_);}
	.st10{fill:url(#SVGID_11_);}
	.st11{fill:url(#SVGID_12_);}
	.st12{fill:url(#SVGID_13_);}
	.st13{fill:url(#SVGID_14_);}
	.st14{fill:url(#SVGID_15_);}
	.st15{fill:url(#SVGID_16_);}
	.st16{fill:url(#SVGID_17_);}
	.st17{fill:url(#SVGID_18_);}
	.st18{fill:url(#SVGID_19_);}
	.st19{fill:url(#SVGID_20_);}
	.st20{fill:url(#SVGID_21_);}
	.st21{fill:url(#SVGID_22_);}
	.st22{fill:url(#SVGID_23_);}
	.st23{fill:url(#SVGID_24_);}
	.st24{fill:url(#SVGID_25_);}
	.st25{fill:url(#SVGID_26_);}
	.st26{fill:url(#SVGID_27_);}
	.st27{fill:url(#SVGID_28_);}
	.st28{fill:url(#SVGID_29_);}
	.st29{fill:url(#SVGID_30_);}
	.st30{fill:url(#SVGID_31_);}
	.st31{fill:url(#SVGID_32_);}
	.st32{fill:url(#SVGID_33_);}
	.st33{fill:url(#SVGID_34_);}
	.st34{fill:url(#SVGID_35_);}
	.st35{fill:url(#SVGID_36_);}
	.st36{fill:url(#SVGID_37_);}
	.st37{fill:url(#SVGID_38_);}
	.st38{fill:url(#SVGID_39_);}
	.st39{fill:url(#SVGID_40_);}
</style>
<g>
	
		<linearGradient id="SVGID_1_" gradientUnits="userSpaceOnUse" x1="684.5723" y1="-0.877" x2="684.5723" y2="220.413" gradientTransform="matrix(1 0 0 -1 0 216)">
		<stop  offset="0" style="stop-color:#000000;stop-opacity:0"/>
		<stop  offset="1" style="stop-color:#000000;stop-opacity:0.2"/>
	</linearGradient>
	<path class="st0" d="M916.1,49.5c-3.4-3.6-10.6-11.4-10.7-11.5c-2.7-3-5.4-6.2-8.3-9c-3.7-3.6-7.5-7.1-11.4-10.4
		c-9.9-8.3-20.9-14.6-33.2-18.4c-1.7-0.5-3.4-0.8-5.2-0.8c-12.6-0.1-25.2,0-37.9,0c-0.6,0-1.3,0-1.9,0.2c-11,3.4-20,9.7-26.9,19
		c-5.3,7.1-10.4,14.5-15.7,21.6c-3.1,4.2-6.7,8.1-11.2,10.9c-7.8,5-16.2,6.1-25.2,4.8c-9.3-1.4-17.8-4.8-25.8-9.6
		c-10-6-20.1-11.7-30.6-16.8c-10.1-4.9-20.5-6.3-31.5-3.3c-11.3,3-18.5,10-20.7,21.7c-1,4.9-1.8,9.9-3,14.8c-1.6,6.8-5.4,12.1-12,15
		c-4.9,2.2-10.2,2.7-15.5,2.2c-8.5-0.8-16.4-3.4-24.1-6.8c-6.7-2.9-13.4-6-20.2-8.8c-7.8-3.2-15.9-4.8-24.3-3.5
		c-9.3,1.5-15.8,6.6-18.6,15.8c-2,6.7-1.3,13.4,1.3,19.7c2.6,6.6,5.9,12.9,9.1,19.3c3.1,6.1,6.4,12.1,8.3,18.7
		c1.7,6,2.8,12,1.8,18.2c-1,6.3-3.6,11.6-9.5,14.7c-4.4,2.3-9.1,3-14,2.3c-4.8-0.6-9.6-1.5-14.4-2.4c-5.5-1-11-2.2-16.8-1.8
		c-6.9,0.5-12.9,5.5-14.4,12.3c-1,4.5-0.9,9,0,13.5c1.6,8.5,4.3,16.7,4.8,25.4h5.3c-1-4.2-1.9-8.3-2.9-12.4c-1.1-5-2.1-9.9-1.6-15.1
		c0.7-6.7,3.9-11.9,10-15c5.5-2.8,11.5-3.4,17.6-2.9c6.6,0.5,13,1.9,19.2,3.9c2.9,0.9,5.8,1.1,8.8,0.4c3.6-1,6.3-3.1,8.8-5.8
		c5.4-5.8,7.3-12.8,6.7-20.6c-0.4-4.7-1.8-9.1-4-13.2c-4.2-7.8-8.5-15.5-12.8-23.2c-4.4-7.8-7.3-16.1-6.7-25.2
		c0.5-6.8,3.1-12.5,8.7-16.7c6.4-4.8,13.8-5.6,21.5-5c6.1,0.5,11.7,2.7,17.2,5.3c7.9,3.8,15.8,7.6,23.8,11.5
		c8.6,4.2,17.6,5.4,27,3.3c8.4-1.9,14.1-6.9,16.7-15.3c1.4-4.6,1.6-9.3,2.1-14c0.8-8.1,4.1-15,11.3-19.4c9.5-5.8,19.9-7.1,30.7-4.6
		c6.7,1.5,12.7,4.8,18.6,8.1c8.5,4.8,16.9,9.8,25.3,14.7c9.7,5.6,20,8.9,31.2,8.7c10.3-0.2,18.8-4.1,24.9-12.5
		c3.8-5.3,7.2-11,10.4-16.7c6.8-12.4,16.8-20.9,30.3-25.5c9.3-3.1,18.9-4,28.6-3.2c12.1,0.9,23.4,4.4,34,10.3
		c9.8,5.5,18.5,12.5,26.5,20.5c3.1,3.1,15.2,16.4,20.4,22.1L916.1,49.5L916.1,49.5z"/>
	
		<linearGradient id="SVGID_2_" gradientUnits="userSpaceOnUse" x1="694.5106" y1="-0.877" x2="694.5106" y2="220.413" gradientTransform="matrix(1 0 0 -1 0 216)">
		<stop  offset="0" style="stop-color:#000000;stop-opacity:0"/>
		<stop  offset="1" style="stop-color:#000000;stop-opacity:0.2"/>
	</linearGradient>
	<path class="st1" d="M916.1,77.2c-2.4-2.5-10.6-11-10.8-11.1c-5-6.1-10.4-11.9-16.3-17.3c-8.1-7.3-17-13.6-27-18.1
		c-15.4-6.9-31.4-8.4-47.8-4.5c-15.7,3.8-27.4,12.7-34.9,27.1c-2.5,4.8-5.3,9.5-8.2,14.1c-2.7,4.3-6.5,7.6-11.1,9.8
		c-6.2,2.9-12.8,3.3-19.5,2.3c-9.1-1.3-17.5-4.9-25.2-9.8c-8.1-5.2-16-10.6-24-15.9c-6.1-4.1-12.6-7.1-19.8-8.6
		c-6.6-1.4-13-1.2-19.3,1.3c-4.8,1.8-9,4.7-12.6,8.4c-4.8,4.9-6.7,10.7-5.2,17.5c0.8,3.5,0.6,7-0.8,10.4c-2.6,6-7.4,9.6-13,12.4
		c-6.8,3.3-14,3.5-21.3,1.8c-6.5-1.5-12.4-4.3-18.4-7.2c-6.3-3-12.6-6.2-19.1-9c-8.9-3.8-18.2-4.6-27.7-2.2
		c-12.2,3.1-17.7,13.7-16.7,24.4c0.7,7,3,13.5,6.7,19.5c4.3,7.1,9,14,13.5,21c3.6,5.7,6,11.8,6.2,18.5c0.3,8.1-2.7,14.9-8.8,20.1
		c-2.6,2.2-5.6,3.4-9,3.2c-5.7-0.4-11.5-1-17.2-1.5c-6.7-0.6-13.4-1.3-20.1-1c-2.1,0.1-4.4,0.4-6.3,1.1c-6.8,2.6-9.5,9.1-9.3,15.6
		c0.2,5.7,1.3,11.4,2,17.1h4.2c-0.1-2.9-0.4-5.7-0.3-8.4c0.2-6.8,3-12.3,8.9-16.1c5.1-3.3,10.8-4.1,16.7-4.4
		c7.4-0.3,14.6,1,21.7,3.1c2.9,0.9,5.8,1.2,8.8,0.4c4-1,7-3.4,9.4-6.6c5.7-7.3,7.5-15.3,4.7-24.2c-1.9-5.9-4.6-11.4-7.9-16.6
		c-3.9-6.2-8-12.2-11.7-18.6c-4.1-7-6.2-14.7-5.5-22.9c0.4-5.2,2.1-9.9,5.8-13.7c4.7-4.8,10.7-6.2,17-5.8c4,0.2,8,0.9,11.8,2.1
		c9.2,2.9,18.2,6.2,27.3,9.3c7.7,2.7,15.3,5.8,23.3,7.7c6.6,1.6,13.2,2.1,19.8,0.1c7-2.1,10.7-7.7,9.9-14.9c-0.2-2-0.6-4-1-6
		c-0.8-4.8-0.6-9.4,1.5-13.8c2.6-5.3,6.9-8.7,12.1-11.1c9.4-4.4,19.1-5.5,29.1-2.2c7.7,2.6,14.7,6.7,21.4,11.1
		c7.6,4.9,15.1,9.9,22.7,14.8c6.3,4.1,13.1,7,20.7,7.6c7.8,0.6,15.3,0.1,22.5-3.4c6.8-3.3,11.5-8.3,13-15.9
		c1.7-8.5,5.7-15.6,12-21.5c9.1-8.6,20-13.2,32.5-13.8c8.5-0.4,16.9,0.9,25,3.5c9.3,3,17.9,7.5,25.9,13.1c9,6.3,17,13.7,24.2,21.9
		c1.4,1.6,10.6,11.2,15.4,16.3L916.1,77.2L916.1,77.2z"/>
	
		<linearGradient id="SVGID_3_" gradientUnits="userSpaceOnUse" x1="703.8151" y1="-0.877" x2="703.8151" y2="220.413" gradientTransform="matrix(1 0 0 -1 0 216)">
		<stop  offset="0" style="stop-color:#000000;stop-opacity:0"/>
		<stop  offset="1" style="stop-color:#000000;stop-opacity:0.2"/>
	</linearGradient>
	<path class="st2" d="M916.1,109.1c-2.6-3.5-10.5-11-10.7-11.2c-4-5-7.8-10.1-12-14.9c-8.2-9.4-17.6-17.2-28.4-23.4
		c-10.7-6.1-22.2-8.9-34.5-8.1c-10.4,0.7-19.9,3.9-28.4,9.9c-8.3,5.8-13.6,13.5-15.5,23.5c-0.8,4.2-2.4,7.9-5.4,10.9
		c-7.2,7.1-16,9.7-25.9,8.8c-7.6-0.7-14.6-3.4-20.8-7.8c-8.8-6.2-17.3-12.6-26-18.9c-5.8-4.2-11.5-8.3-18.3-10.7
		c-5.6-2-11.4-3.1-17.4-2.5c-7.3,0.7-13.2,4-18,9.5c-5.7,6.5-7.8,13.6-4.2,21.9c0.8,1.8,1,3.9,0.4,5.9c-2,7.6-7.3,12.1-14.6,14.1
		c-5.5,1.5-11,0.6-16.1-1.4c-6.5-2.4-12.9-5.3-19.3-8.1c-9.6-4.1-19.1-8.4-29.2-11.1c-5.6-1.5-11.2-2.8-17.1-2.4
		c-8.7,0.6-15.6,6.1-17.8,14.5c-1.8,6.7-1.2,13.3,0.8,19.9c1.6,5.1,4.6,9.6,7.5,14c4.2,6.4,8.7,12.6,12.8,19
		c4.2,6.6,6.7,13.8,6.1,21.8c-0.6,7.5-4.2,13-11.2,16.2c-4.2,1.9-8.7,2.3-13.3,2.2c-4.7-0.1-9.4-0.6-14.1-1
		c-5.6-0.5-11.2-1.1-16.9-0.4c-5.3,0.7-10,2.7-13.4,7.1c-2.4,3.1-3.5,6.6-3.7,10.5c2.4,0,4.7,0,7,0c0.3,0,0.6-0.3,0.8-0.6
		c1.2-1.8,2.1-3.7,3.5-5.2c3.5-3.9,8.1-5.4,13.1-6.1c6.8-1,13.6-0.4,20.3,0.4c6.2,0.7,12.3,1,18.5-0.4c5.2-1.2,10-3,13.6-7
		c2.6-2.9,3.8-6.2,3.5-10.1c-0.4-4.4-2.1-8.4-4-12.2c-4.5-9.1-9.1-18.1-13.8-27.1c-3.5-6.8-7-13.5-10.4-20.3
		c-2.1-4.1-3.1-8.4-1.4-12.9c4.6-12.3,15.1-17.5,27-16.7c5.5,0.4,10.8,1.9,15.7,4.3c8.2,4.1,16.3,8.4,24.5,12.7
		c6.8,3.6,13.8,6.5,21.6,7.1c9,0.7,16.6-2,22.6-8.8c5-5.8,7-12.1,3.9-19.5c-1-2.5-1.1-5.1-0.4-7.8c1-3.7,3.1-6.7,6-9.2
		c6-5.2,12.9-7.3,20.8-6c6.8,1.2,12.7,4.2,18.2,8.3c7.1,5.2,14,10.7,21.1,15.8c11.8,8.4,24.8,14.6,38.7,18.6
		c6.5,1.9,12.5,1,17.7-3.6c3.4-3.1,5.7-7,7.7-11.1c2.8-5.8,5.4-11.8,8.2-17.6c4.2-8.8,11-14.9,20.3-18.1c7.9-2.8,16-3.1,24.2-2
		c12.3,1.5,23.3,6.2,33.5,13.2c10.1,6.9,19,15.1,27,24.3c1.5,1.7,11.4,12.4,15.6,17.1L916.1,109.1L916.1,109.1z"/>
	
		<linearGradient id="SVGID_4_" gradientUnits="userSpaceOnUse" x1="745.2614" y1="-0.877" x2="745.2614" y2="220.413" gradientTransform="matrix(1 0 0 -1 0 216)">
		<stop  offset="0" style="stop-color:#000000;stop-opacity:0"/>
		<stop  offset="1" style="stop-color:#000000;stop-opacity:0.2"/>
	</linearGradient>
	<path class="st3" d="M916.1,160.7c-1.2-1.9-2.6-3.7-4-5.4c-4.6-5.9-9.8-11.4-14.7-17c-4.7-5.3-9.5-10.5-14.8-15.1
		c-7.3-6.3-15.4-11.1-24.8-13.7c-7.3-2-14.7-2.8-22.2-1.4c-8.9,1.7-16,6.3-21.9,13.1c-5.5,6.5-8.3,13.8-7.7,22.4
		c0.1,1.4,0.1,2.8-0.1,4.2c-1,5.7-5,9.1-9.9,11.4c-6.2,2.9-12.5,2.1-18.6-0.4c-4.7-2-8.8-5-12.7-8.1c-8.9-7.1-17.7-14.5-26.5-21.7
		c-6.1-5-12.2-10.1-18.8-14.4c-5.6-3.6-11.5-6.4-18.3-7c-9.2-0.7-16,5.6-16.2,14.7c-0.1,5.8,0.8,11.7,1.2,17.6
		c0.3,4.8-0.4,9.3-2.6,13.6c-2.5,4.6-6.8,6.8-11.7,5.6c-2.3-0.6-4.6-1.4-6.8-2.4c-14.2-6.7-28.4-13.6-42.6-20.4
		c-7.3-3.5-14.6-7.1-21.9-10.6c-4.9-2.3-9.9-2.4-14.4,0.8c-9.6,6.9-13.3,16.5-10.5,27.9c1.4,5.9,4.2,11.2,7.4,16.3
		c4.2,6.8,8.6,13.5,12.6,20.4c3.8,6.6,5.6,13.9,5.2,21.6c-0.1,1.3-0.2,2.6-0.3,3.9h6.3c0-0.5,0-0.9,0-1.3c-0.4-6.3-1.8-12.5-4.8-18
		c-3.1-5.7-6.6-11.1-10-16.7c-3.4-5.6-6.8-11.2-8.8-17.5c-1.1-3.7-1.9-7.4-1.6-11.2c0.6-6.9,3.8-12.6,8.7-17.3
		c3-2.9,6.5-4.8,10.8-4.6c3.4,0.1,6.4,1.4,9.3,3c10.7,5.7,21.4,11.5,32.1,17.2c7.7,4.1,15.3,8.2,23.1,12.3c3.6,1.9,7.2,3.8,11.3,4.6
		c6.2,1.2,11-0.9,13.5-6.1c2.1-4.1,2.4-8.6,2.3-13.1c-0.1-3.1-0.6-6.2-0.9-9.3c-0.5-5.3-0.5-10.6,1.5-15.7c1.1-2.9,2.7-5.4,5.5-7
		c3-1.7,6.2-1.5,9.4-0.5c6.4,2.1,12.3,5.4,17.9,9.1c9.3,6.1,17.6,13.6,25.9,21.1c9.2,8.3,18.8,16,29.2,22.7c3.4,2.2,7,3.8,11,4.2
		c5.1,0.5,9.1-1.8,12.4-5.6c3.5-4.1,5.4-8.9,6.5-14.1c1.3-5.9,2.4-11.8,3.9-17.6c1.4-5.3,4.3-9.8,8.9-13c5-3.5,10.7-4.6,16.6-4.7
		c8.2-0.2,16,1.8,23.4,5.4c14,6.7,25.5,16.5,35.8,28c1.9,2.1,12.2,13.4,16.6,18.3L916.1,160.7L916.1,160.7z"/>
	
		<linearGradient id="SVGID_5_" gradientUnits="userSpaceOnUse" x1="754.2086" y1="-0.877" x2="754.2086" y2="220.413" gradientTransform="matrix(1 0 0 -1 0 216)">
		<stop  offset="0" style="stop-color:#000000;stop-opacity:0"/>
		<stop  offset="1" style="stop-color:#000000;stop-opacity:0.2"/>
	</linearGradient>
	<path class="st4" d="M916.1,186.8c-3.3-3.5-10.5-11.1-10.6-11.2c-5.5-6.8-11.5-13.2-18.1-19c-7.5-6.5-15.6-12.2-24.7-16.4
		c-6.5-3-13.4-4.9-20.7-4.4c-9.1,0.7-15.6,5.2-18.7,13.8c-1.8,4.8-2.5,10-3.7,15c-1,4.2-1.5,8.5-2.7,12.6c-2,6.6-6.1,11.7-12.4,14.8
		c-5.6,2.8-9.4,2.3-13.7-1.5c-7-6.3-14.1-12.5-21.2-18.8c-7.8-6.9-15.7-13.8-23.5-20.7c-5.2-4.5-10.3-9.1-15.6-13.5
		c-3.7-3.1-7.8-5.7-12.7-6.7c-5.7-1.2-10.7,1.1-13.6,6.2c-1.9,3.3-2.9,6.9-2.7,10.7c0.2,6.7,0.7,13.5,1.2,20.2
		c0.3,4.6-0.4,8.9-3.6,12.4c-5.1,5.6-10,6.8-16,2.5c-14.9-10.7-30.1-20.9-45.9-30.1c-5.8-3.4-11.7-6.5-18.1-8.4
		c-7.8-2.3-15.1-1.3-21.2,4.4c-2.9,2.7-5,5.9-5.3,10c-0.3,3.1,0.8,6,2.1,8.8c5.8,12.5,10.9,25.2,15.2,38.3c1.2,3.6,2.3,7.1,3.4,10.7
		h3.3c0-0.3-0.1-0.5-0.1-0.7c-4.5-15-9.7-29.7-15.9-44.1c-1.2-2.7-1.8-5.5-1.2-8.4c1.3-6.3,7.8-12.4,14.6-13.6
		c5.8-1.1,11.5-0.2,16.7,2.5c5.1,2.7,10.1,5.7,14.8,9c14.7,10.3,29.2,20.9,43.9,31.2c3.6,2.6,7.5,2.7,11.3,0.5
		c5.3-3.1,8-7.8,7.9-13.9c-0.2-6.1-0.7-12.3-1.1-18.4c-0.3-4.4-0.4-8.6,1.5-12.8c2.4-5.2,6.9-8.3,12.4-8c3.5,0.2,6.9,1.2,9.7,3.4
		c4.6,3.5,9,7.2,13.3,11c4.8,4.3,9.5,8.8,14.2,13.2c6.8,6.3,13.5,12.6,20.3,18.9c5.4,5.1,10.7,10.2,16.2,15.2
		c3.6,3.3,7.7,4.3,12.3,2.3c5.7-2.5,9.8-6.6,12.4-12.3c2-4.4,2.4-9.2,3.1-14c0.8-5.3,1.2-10.6,2.9-15.6c2-5.9,5.3-10.6,11.1-13.3
		c4.7-2.2,9.7-2.3,14.8-1.7c6.6,0.8,12.6,3.3,18.4,6.6c12.1,6.9,22.5,15.9,31.7,26.4c1.2,1.3,10.3,10.9,14.5,15.3V186.8z"/>
	
		<linearGradient id="SVGID_6_" gradientUnits="userSpaceOnUse" x1="760.36" y1="-6.5554" x2="760.36" y2="223.8612" gradientTransform="matrix(1 0 0 -1 0 216)">
		<stop  offset="0" style="stop-color:#000000;stop-opacity:0"/>
		<stop  offset="1" style="stop-color:#000000;stop-opacity:0.2"/>
	</linearGradient>
	<path class="st5" d="M916.1,135.4c-4.1-5-12.6-13.7-13.6-14.9c-5.9-7.6-11.8-15.2-18.9-21.8c-6.7-6.2-14.1-11.4-22.5-15
		c-8.5-3.6-17.3-5.2-26.5-4.2c-9.2,1-17.5,4.4-25,9.7c-8.4,5.9-13.2,14.1-13.7,24.5c-0.2,3.9-1.4,7.4-4.2,10.2
		c-5.9,6-13.2,8.4-21.6,7.7c-5.9-0.5-11.2-2.7-16-6c-5.1-3.5-10-7.3-14.7-11.3c-12.8-10.8-26.6-19.9-42.1-26.3
		c-5-2.1-10.1-3.6-15.6-3.1c-5.8,0.5-9.9,3.4-11.9,8.9c-1.9,5.5-1.6,11.2-1.6,16.9c0,4.6,0.2,9.3-0.3,13.9
		c-0.7,6.5-5.1,10.8-11.1,11.5c-3.7,0.4-7.2-0.4-10.6-1.6c-8.8-3.3-17.5-6.7-26.3-10c-4.7-1.8-9.3-3.6-14-5.3c-0.3-0.1-0.7,0-1.1,0
		c0,0.1,0,0.2,0,0.4c2.5,1.6,5,3.2,7.5,4.8c8,5.1,15.9,10.3,24.5,14.5c8.3,4.1,16.8,4.8,25.5,1.9c4.3-1.4,8.2-3.4,11.2-6.9
		c3.7-4.4,4.4-9.6,3.7-15.1c-0.6-4.3-1.3-8.6-1.8-12.9c-0.7-6.5,3-10.6,8.4-12.1c6.8-1.9,13.4-1,19.9,1.3c7.4,2.7,13.9,7,19.7,12.1
		c6.3,5.6,12.5,11.3,18.7,17c5.2,4.8,10.6,9.4,17.2,12.4c6,2.8,12.2,4.2,18.9,3.6c6.7-0.6,12.6-3.4,17.6-7.7c3.6-3.1,5.8-7.1,6-11.9
		c0.3-8.4,3.2-15.6,9.4-21.4c8.8-8.3,19.3-12,31.4-10.8c8.8,0.8,16.9,3.8,24.5,8.2c11.5,6.6,21.3,15.4,30.1,25.2
		c2.6,2.9,13.9,15.4,19,21.1L916.1,135.4L916.1,135.4z"/>
	
		<linearGradient id="SVGID_7_" gradientUnits="userSpaceOnUse" x1="871.455" y1="-6.3768" x2="871.455" y2="239.1465" gradientTransform="matrix(1 0 0 -1 0 216)">
		<stop  offset="0" style="stop-color:#000000;stop-opacity:0"/>
		<stop  offset="1" style="stop-color:#000000;stop-opacity:0.2"/>
	</linearGradient>
	<path class="st6" d="M916.1,213.2c-1.6-1.6-10.6-10.8-10.8-11c-5.8-7-12.1-13.4-18.9-19.4c-5.3-4.6-10.9-8.9-17.3-12
		c-6-2.8-12.2-4.7-18.9-4.1c-6.6,0.6-11.6,3.7-15,9.4c-2.5,4.1-3.4,8.6-4,13.2c-0.7,5.7-1.2,11.4-2.1,17.1
		c-0.5,3.4-1.5,6.7-2.3,10.1h6.4c0.4-5.6,0.7-11.2,1.3-16.8c0.6-5.4,2-10.5,5.3-15c3.7-5,8.7-7.6,14.9-7.4
		c5.9,0.2,11.5,2.1,16.7,4.7c8.6,4.3,16,10.4,22.9,17c4,3.8,17.5,18.2,21.7,22.6L916.1,213.2L916.1,213.2z"/>
	
		<linearGradient id="SVGID_8_" gradientUnits="userSpaceOnUse" x1="900.21" y1="-128.4531" x2="900.21" y2="222.4883" gradientTransform="matrix(1 0 0 -1 0 216)">
		<stop  offset="0" style="stop-color:#000000;stop-opacity:0"/>
		<stop  offset="1" style="stop-color:#000000;stop-opacity:0.2"/>
	</linearGradient>
	<path class="st7" d="M916.1,20.2c-4.3-4.6-14.4-15.2-16.1-17c-1.3-1.3-2.4-3.1-4-3.7s-3.6-0.2-5.5-0.2c-2,0-4,0-6.2,0
		c0.2,0.2,0.2,0.4,0.3,0.4c5.9,4.7,11.4,9.9,16.5,15.5c1.3,1.4,10.8,11.4,14.9,15.6V20.2z"/>
	
		<linearGradient id="SVGID_9_" gradientUnits="userSpaceOnUse" x1="308.675" y1="-0.877" x2="308.675" y2="220.413" gradientTransform="matrix(1 0 0 -1 0 216)">
		<stop  offset="0" style="stop-color:#000000;stop-opacity:0"/>
		<stop  offset="1" style="stop-color:#000000;stop-opacity:0.2"/>
	</linearGradient>
	<path class="st8" d="M24.9-0.7c2.7,0,5.2,0,7.6,0c0.4,0,0.8,0.5,1.2,0.8c4.5,5.1,8.9,10.4,13.6,15.4c7.1,7.5,15.2,13.9,23.7,19.6
		c10.1,6.7,20.3,13.1,30.6,19.5c5.7,3.5,11.9,5.8,18.7,6.2c4.9,0.3,9.6-0.5,14.3-1.7c4.7-1.3,9.4-2.7,14.1-3.7
		c8-1.6,15.8-0.6,23.4,2.3c8.6,3.2,16.2,8.2,23,14.3c7.6,6.9,13.9,14.8,19.6,23.2c6.9,9.9,13.4,20,20.1,30
		c4.9,7.3,10.2,14.1,16.6,20.2c6.5,6.2,13.6,11.4,22,14.7c3,1.2,6.1,2.2,9.3,2.2c4.6,0.1,8.1-2.3,9.1-7.9c0.4-2.1,0.5-4.2,0.5-6.3
		c0-7.9,0-15.7-0.1-23.6c-0.1-8.1-0.2-16.3-0.2-24.4c0-3.7,0-7.4-0.1-11.2c-0.1-4.5,2-7.5,5.8-9.6c6.9-3.7,13.3-2.6,19.4,2
		c3,2.3,5.3,5.3,7.3,8.5c5.3,8.4,10.3,16.9,15.8,25.2c7.1,10.8,15.1,21,23.9,30.5c4.3,4.6,8.6,9.2,13.2,13.5c3.5,3.2,7.3,6.1,12,7.6
		c2.2,0.7,4.6,1.2,6.9,1c4.7-0.3,7.9-3.6,8.4-8.3c0.3-3.1,0.3-6.3,0.3-9.4c0-2.8-0.2-5.5-0.3-8.3c-0.3-7.5-0.6-14.9-0.8-22.4
		c-0.1-2.9-0.2-5.8-0.1-8.8c0.1-5.5,2.9-9,8.4-10.2c6.7-1.5,13.1-0.8,19,2.9c4.9,3.1,9.7,6.3,15.1,8.4c2.7,1.1,5.6,2,8.5,2.4
		c5.1,0.6,9.1-1.8,12.5-5.5c4.4-4.8,6.1-10.6,6.3-16.9c0.2-5.5-1-10.9-1.7-16.3c-0.9-6.2-1.9-12.5-2.5-18.8c-1-9.7-0.2-19.4,1.8-29
		c1.4-7,3.5-13.8,6.5-20.3c1.2-2.5,2.9-4.8,4.4-7.1c0.4-0.7,1.1-0.9,1.9-0.9c8.7,0,17.3,0,26,0.1c0.6,0,1.4,0.3,2,0.6
		c4.2,2.9,7.6,6.7,11.1,10.3c4.9,5.1,9.7,10.4,15.7,14.4c8.7,5.7,17.6,5.6,26.5,0.3c7.2-4.2,12.6-10.3,16.9-17.4
		c1.5-2.5,3-4.9,4.4-7.4c0.4-0.7,0.8-0.9,1.6-0.9c1.6,0.1,3.3,0,5.1,0c-0.8,1.4-1.4,2.7-2.1,4c-2.9,5.8-5.7,11.6-9.7,16.6
		c-4.3,5.5-9.3,10.4-15.7,13.4c-6.7,3.2-13.5,3-20.2-0.2c-6.3-2.9-11.8-7.2-17-11.8c-5.7-5-11.2-10.1-17.6-14.2
		c-3.7-2.4-7.8-4-12.2-4.2c-6.6-0.2-11.9,2.5-16.1,7.6c-4.3,5.3-6.7,11.5-7.7,18.1c-0.9,5.4-1.3,10.9-1.6,16.4
		c-0.6,10.9,0.2,21.7,1.8,32.5c0.7,5.1,1.6,10.1,2.3,15.2c0.8,5.8,0.6,11.7-1.1,17.3c-2.7,8.4-10.4,12.7-19,10.5
		c-5.4-1.3-10.3-3.6-15.2-6c-4.3-2.1-8.5-4.3-13.2-5.5c-3.5-0.9-7-1.3-10.5,0c-4.4,1.6-7.1,4.8-8.8,9.1c-2.3,5.8-2.3,11.7-1.1,17.7
		c1.2,6,2.6,11.9,3.6,18c0.7,4.1,0.7,8.3-0.9,12.3c-2.5,6.3-7.2,10.1-14,10.9c-3.1,0.4-5.8-1.1-8-3.2c-5.9-5.6-12-11-17.7-16.8
		c-12.6-12.7-24-26.5-34-41.4c-4.1-6.1-8.1-12.3-12.1-18.4c-2.5-3.8-5.6-6.7-10.4-6.9c-7.8-0.3-14.7,3.3-18.3,11.1
		c-2.2,4.8-2.5,10-2.2,15.2c0.3,7.2,2.3,14.2,3.5,21.3c1.1,6.1,1.8,12.2,0.9,18.5c-1.5,10.1-8.8,17.1-18.9,17.8
		c-4.2,0.3-7.7-1.6-10.4-4.8c-10.1-11.7-20.1-23.5-30.1-35.3c-9.9-11.6-19.8-23.2-29.7-34.7c-5.1-5.9-10.2-11.8-15.3-17.7
		c-3.9-4.5-8.2-8.5-13.1-11.9c-7.6-5.2-15.8-6.5-24.5-3.8c-4.9,1.6-9.8,3.4-14.7,5c-4.2,1.4-8.6,2-13.1,2.2
		c-9.4,0.5-18-2.1-26.3-6.5C91.6,61.6,81.5,55.6,72,48.8c-6.2-4.4-12.2-9-17.7-14.3C47.2,27.5,40.8,19.9,34.8,12
		C31.5,7.9,28.3,3.7,24.9-0.7z"/>
	
		<linearGradient id="SVGID_10_" gradientUnits="userSpaceOnUse" x1="247.3951" y1="-0.877" x2="247.3951" y2="220.413" gradientTransform="matrix(1 0 0 -1 0 216)">
		<stop  offset="0" style="stop-color:#000000;stop-opacity:0"/>
		<stop  offset="1" style="stop-color:#000000;stop-opacity:0.2"/>
	</linearGradient>
	<path class="st9" d="M1.4-0.7c1.9,0,3.8,0,5.6,0c0.3,0,0.7,0.2,1,0.4c3.1,1.8,5,4.7,7,7.4C23,17.8,30.9,28.5,39.1,39
		c3,3.9,6.6,7.5,10,11.2c11.6,12.3,24.9,22.7,39,32c7.4,4.9,15.1,9.1,23.7,11.6c7,2,14.1,2.3,21.3,1.8c7-0.5,13.6-2.6,20.4-4
		c4.1-0.8,8.2-1.6,12.4-1.9c6.3-0.5,12.3,1.3,18,3.9c6.1,2.8,11.3,6.7,16.2,11.2c8.8,7.9,15.9,17.3,23.1,26.6
		c6.7,8.6,13.5,17.2,20.6,25.4c8.2,9.5,17.6,17.9,27.4,25.8c3.2,2.6,6.4,5,9.7,7.5c5.7,4.3,11.2,4.4,17.2,0.5
		c5.8-3.7,8.5-9.2,9.2-15.9c0.6-6.1-0.7-12.1-1.8-18.1c-1.2-6.4-2.3-12.8-3-19.3c-0.8-7,1-13.4,6.2-18.5c3.1-3,6.9-4.3,11.2-4.6
		c4.6-0.3,8,1.6,10.8,5.1c6,7.6,12.1,15.3,18.3,22.8c6.9,8.3,14.4,16.1,22.2,23.6c9,8.6,18.5,16.6,28.4,24.1c1.3,1,2.8,1.9,4.3,2.5
		c3.5,1.5,6.9,0.8,10-1.4c5.7-3.9,8.9-9.3,8.4-16.2c-0.3-4.3-1.4-8.6-2.3-12.8c-1.1-5.1-2.8-10.2-3.2-15.5c-0.3-4.4,0-8.7,1.8-12.8
		c3.5-8.2,11.1-11.4,19.3-8c5.2,2.1,10.2,4.6,15.2,7c3.7,1.8,7.5,3.1,11.7,3.1c4.9,0,9.1-1.8,12.6-5.1c6.5-6.1,9.8-13.8,10.5-22.6
		c0.1-1.5,0.1-3,0.1-4.6c0-0.5,0.2-1.1,0.4-1.6c2.8,7.6,5.3,15.3,4.9,23.6c-0.5,10.2-7.8,15.2-17.1,14.7c-6.9-0.4-13.3-2.9-19.9-4.5
		c-4.3-1.1-8.5-2.2-12.9-2.9c-5.3-0.8-10.4,0.1-14.6,3.7c-3.7,3.2-5.3,7.5-5.8,12.2c-0.7,6.8,1,13.2,2.7,19.6
		c1.4,5.2,2.5,10.5,2.4,15.9c-0.1,7.6-3.7,12.9-10.5,16.1c-3.7,1.8-7.5,1.1-10.7-1.3c-6.8-5-13.5-10.1-20-15.5
		c-6-4.9-11.7-10.1-17.4-15.3c-4.6-4.3-9.3-8.6-13.6-13.2c-7.3-7.9-14.4-16-21.6-24c-1.9-2.1-3.9-3.9-6.6-4.7
		c-3.4-1-6.5-0.1-9.4,1.6c-5.7,3.3-9.7,8-10.9,14.7c-0.7,3.9,0,7.7,0.7,11.5c1.2,6.8,2.6,13.5,3.8,20.3c1.6,8.9-0.5,16.9-6.6,23.6
		c-4.3,4.7-9.2,6.1-16,3.4c-9.1-3.5-17-8.7-24.3-15.1c-8.5-7.4-15.5-16.1-22.4-25c-7-8.9-13.8-17.9-21.1-26.6
		c-8.6-10.2-18.7-18.8-30.4-25.3c-7.7-4.2-15.8-7.1-24.6-7.7c-5.6-0.3-11.1,0.4-16.6,1.9c-7.2,1.9-14.3,3.9-21.9,3.8
		c-8.6-0.1-16.8-1.8-24.8-4.8c-10.8-4-20.1-10.3-29-17.5c-4.7-3.8-9.5-7.3-13.9-11.4c-3.6-3.3-6.8-7-10-10.7
		c-5.5-6.3-10.9-12.8-16.2-19.2c-8.9-10.9-17.6-22-25.4-33.9C6.4,6.4,3.9,3,1.4-0.7z"/>
	
		<linearGradient id="SVGID_11_" gradientUnits="userSpaceOnUse" x1="262.42" y1="-0.877" x2="262.42" y2="220.413" gradientTransform="matrix(1 0 0 -1 0 216)">
		<stop  offset="0" style="stop-color:#000000;stop-opacity:0"/>
		<stop  offset="1" style="stop-color:#000000;stop-opacity:0.2"/>
	</linearGradient>
	<path class="st10" d="M468.6-0.7c1.2,0,2.1,0,3.1,0c-0.2,0.7-0.4,1.3-0.6,1.9c-3.6,9.8-5.9,19.9-6.6,30.4
		c-0.5,6.9-0.6,13.8-0.6,20.7c0,6.1,0.5,12.1,0.5,18.2c0,6.5-1.1,12.8-3.9,18.8c-2.6,5.7-6.7,9.5-13.3,9.9
		c-4.1,0.3-7.9-0.9-11.2-3.1c-3.9-2.7-7.6-5.6-11.3-8.5c-2.7-2.1-5.3-4.2-8.5-5.5c-4.3-1.8-8.7-2-13.2-0.9c-5.1,1.3-7.5,4.2-7.6,9.5
		c-0.2,6.3-0.3,12.6-0.5,18.8c-0.2,7.8-0.4,15.7-0.7,23.5c-0.1,3-0.3,6.1-0.8,9.1c-0.2,1.6-0.9,3.2-1.7,4.6c-2.1,3.5-5.8,4.8-10,3.8
		c-6.3-1.5-11.6-4.8-15.6-9.8c-6.7-8.6-13.3-17.3-19.5-26.3c-7.1-10.4-13.8-21-20.3-31.7c-4.9-8-9.3-16.3-13.9-24.5
		c-0.6-1.2-1.1-2.4-1.8-3.5c-1.9-3.3-4.6-5.3-8.5-5.6c-4.9-0.3-9.3,1.1-12.7,4.7c-2.7,2.8-4.5,6.2-5.1,10c-0.6,3.6-1.1,7.4-1.2,11.1
		c-0.2,6.9,0,13.8,0.1,20.7c0.1,6.7,0.1,13.3,0.2,19.9c0.1,5.1,0.3,10.2,0.2,15.4c-0.1,4.6-1.8,8.4-6.3,10.5c-2.9,1.4-6,1.1-9,0.3
		c-3.8-1.1-7-3.1-9.8-5.8c-5.1-5-10.3-9.9-15.4-15c-10.5-10.4-19.4-22.1-27.2-34.5c-5.4-8.6-10.6-17.3-16-25.9
		c-4.1-6.4-8.9-12.3-14.4-17.4c-8.2-7.7-17.9-12.1-29.1-13c-5.6-0.5-11.1,0.6-16.1,3.2c-4.6,2.4-9.6,2.8-14.7,2.4
		c-12.6-0.8-24.5-4.6-35.8-9.9c-4.9-2.3-9.5-5.4-14.1-8.4c-7.7-5-14.8-10.9-21.7-17.1c-0.2-0.2-0.4-0.5-0.8-0.8
		c0.5,0,0.9-0.1,1.3-0.1c5.1,0,10.2,0,15.3,0c0.7,0,1.4,0.2,2,0.6C77.9,4.3,84,8.8,90.2,13.1c7.7,5.3,15.7,10,25,12
		c6.3,1.4,12.6,1.5,18.7-1.1c1.9-0.8,3.6-1.9,5.4-2.9c8.2-4.6,16.7-4.9,25.5-2.3c7,2.1,13.1,5.7,18.4,10.7
		c6.2,5.8,11,12.6,15.5,19.8c6,9.6,11.7,19.4,17.9,28.8c7.7,11.8,16.4,22.9,25.9,33.4c3.5,3.9,7,7.8,10.6,11.6
		c3.3,3.4,7.2,5.9,11.9,6.8c5,1,9.3-0.5,12.7-4.2c1.6-1.8,2.2-3.9,2.2-6.3c0-14.7,0-29.4,0-44.1c0-8.8,0.2-17.5,1.4-26.2
		c0.6-4.2,1.7-8.2,4.2-11.7c3.1-4.2,8.5-5.3,13.1-2.7c4.1,2.3,7.2,5.7,9.6,9.5c4.4,6.8,8.5,13.7,12.6,20.5
		c12.1,20,24.2,40.1,36.2,60.1c2,3.2,3.9,6.5,5.9,9.8c3.4,5.6,7.6,7.1,13.8,5c8.6-2.9,14.4-10.8,14.3-19.8c-0.1-5.6-0.6-11.2-1-16.8
		c-0.3-4.4-0.7-8.8-0.7-13.3c-0.1-10.1,7-17.2,14.4-19.8c3.5-1.3,7.2-1.7,10.4,0.9c1.6,1.3,2.9,2.9,4.2,4.4
		c3.3,3.7,6.6,7.5,10.9,10.3c4,2.6,8.3,4.4,13.2,4.6c6.6,0.2,14.7-4.1,17.1-10.3c1-2.7,1-5.4,0.7-8.2c-0.8-8.3-1-16.6-0.6-24.9
		c0.5-10.7,1.9-21.2,4.5-31.6C465.5,9.8,467.1,4.6,468.6-0.7z"/>
	
		<linearGradient id="SVGID_12_" gradientUnits="userSpaceOnUse" x1="547.46" y1="-0.73" x2="547.46" y2="220.56" gradientTransform="matrix(1 0 0 -1 0 216)">
		<stop  offset="0" style="stop-color:#000000;stop-opacity:0"/>
		<stop  offset="1" style="stop-color:#000000;stop-opacity:0.2"/>
	</linearGradient>
	<path class="st11" d="M780.1-0.7c-6.5,8.5-12.8,16.8-19.2,25c-4.1,5.3-8.9,9.7-14.9,12.9c-4.5,2.4-9.4,3.8-14.5,4.2
		c-8.5,0.7-16.6-1.5-24.4-4.5c-7.2-2.8-13.9-6.4-20.7-10c-7.5-4-14.9-8.1-23-10.7c-7.5-2.3-15.2-3.8-23.1-3.4
		c-7.4,0.4-14.3,2.3-20,7.3c-4,3.5-6.5,7.9-8,13c-1.6,5.6-3,11.3-4.6,16.9c-1.3,4.7-3.2,9.2-6.8,12.8c-4.2,4.3-9.5,6.1-15.4,6.6
		c-8.8,0.7-17-1.9-24.9-5.5c-6.9-3.2-13.8-6.5-20.8-9.7c-6.4-2.9-13.1-5.1-20.2-5.7c-7.1-0.6-13.7,0.5-19.4,5.2
		c-4.5,3.8-7,8.7-8,14.5c-1.4,8.4,0.3,16.3,3.8,23.9c2.9,6.3,6,12.5,8.9,18.7c2.8,5.8,5.4,11.7,6.2,18.2c1.1,8.5-0.2,16.6-5.7,23.5
		c-3.6,4.6-8.6,6.7-14.3,6.9c-5.5,0.2-10.7-1.4-15.9-2.6c-5.2-1.2-10.4-2.5-15.7-3.4c-10-1.5-18.3,5.6-19,15.7
		c-0.4,6,0.9,11.7,2.3,17.4c1.3,5.4,2.6,10.7,3.5,16.2c0.9,4.9-0.5,9.4-3.5,13.3c-0.5,0.6-0.9,0.8-1.7,0.8c-6.9,0-13.9,0-20.8,0
		c-0.6,0-1.3-0.2-1.8-0.5c-16.6-9.9-32.4-20.9-47.1-33.4c-6.8-5.7-13.2-11.8-19.8-17.8c-1.7-1.6-3.3-3.3-5-4.8
		c-4.2-3.9-9.1-3.7-13.8-1.3c-8.2,4.4-11.4,11.3-10.4,20.1c0.9,8.2,2.2,16.4,3.3,24.6c0.6,4.2,0.4,8.3-0.9,12.3
		c-0.1,0.3-0.6,0.8-0.9,0.8c-3,0.1-6,0-9.2,0c0.1-0.2,0.2-0.4,0.3-0.5c4.2-4,5.8-9.1,6.3-14.7c0.4-4.8-0.6-9.5-1.5-14.1
		c-1.1-5.6-2.3-11.2-3.1-16.9c-0.8-5.6,0-11.2,3.3-16c3.1-4.5,7.6-7.1,13.1-7.6c3-0.3,5.7,1.1,7.9,3.1c9.9,8.8,19.7,17.7,29.7,26.5
		c9.5,8.3,19.1,16.5,28.9,24.5c4.5,3.7,9.3,7.2,14.7,9.5c5.3,2.3,10.9,3.1,16.4,0.8s9.3-6.3,11-12.2c1-3.6,0.3-6.9-2.1-9.8
		c-3.2-3.8-5.4-8.2-6-13.1c-1.1-8.2,0.1-16,5.8-22.5c3.9-4.3,8.9-6.6,14.5-7.9c7.1-1.6,13.6,0,19.4,4.2c6.4,4.6,12.3,4.9,19.1,0.9
		c9.8-5.8,14.3-16.3,12.3-28.1c-1.2-7.2-4-13.9-6.9-20.5c-2.7-6-5.3-12.1-7.7-18.2c-2-5.4-2.9-11.1-2.8-16.8
		c0.1-6.3,1.5-12.3,5.7-17.3c4.1-4.9,9.3-7.6,15.6-8.2c6.9-0.7,13.5,0.7,19.9,3c7.7,2.7,14.7,6.9,21.9,10.5
		c6.2,3.1,12.7,5.8,19.5,7.2c6,1.2,11.9,1.4,17.7-0.7c6.6-2.4,11-7.1,13.3-13.5s4.4-13,6.4-19.6c1.7-5.5,4.1-10.6,8.2-14.7
		c4.8-4.8,10.8-7.2,17.4-8.1c11.2-1.4,21.9,0.6,32.1,5c6.8,3,13.4,6.6,20.2,9.8c6.1,2.9,12.1,6,18.3,8.6c6.4,2.7,13.1,4.1,20.1,4.1
		c7.6,0,14.7-2,21.1-6.1c6.8-4.2,12.3-9.9,17.3-16.1c3.1-3.8,6.2-7.6,9.3-11.4c0.2-0.3,0.6-0.6,0.9-0.6C775-0.7,777.4-0.7,780.1-0.7
		z"/>
	
		<linearGradient id="SVGID_13_" gradientUnits="userSpaceOnUse" x1="317.87" y1="-0.877" x2="317.87" y2="220.413" gradientTransform="matrix(1 0 0 -1 0 216)">
		<stop  offset="0" style="stop-color:#000000;stop-opacity:0"/>
		<stop  offset="1" style="stop-color:#000000;stop-opacity:0.2"/>
	</linearGradient>
	<path class="st12" d="M173.6-0.7c3.4,0,6.6,0,9.7,0c0.4,0,0.8,0.4,1.1,0.8c3.5,5.7,6.9,11.4,10.3,17.2c8.9,15.1,18,30.1,28.2,44.5
		c4.8,6.8,9.5,13.6,14.4,20.4c3.2,4.5,6.9,8.4,12,10.8c4.2,2,8.5,2,12.7,0c4-1.9,5.8-5.4,6-9.7c0.1-3.1,0-6.2,0-9.3
		c0.3-9.7,0.3-19.4,1-29.1c0.9-12.1,2.4-24.1,3.6-36.1c0.3-2.8,0.7-5.6,1.1-8.3c0-0.3,0.1-0.7,0.2-1.1c0.5,0,0.9,0,1.2,0
		c8.7,0,17.5,0,26.2,0c0.9,0,1.4,0.2,1.8,1c2.2,4.5,4.5,9,6.6,13.6c5.8,12.7,11.6,25.5,17.3,38.3c5.1,11.3,10.1,22.6,15.2,33.9
		c2.3,5.2,4.6,10.4,7.1,15.5c2.7,5.5,7.2,7.6,13.3,6.8c8.7-1.1,13.4-6.6,16-14.4c1.4-4.4,1.1-8.9,1-13.4c0-2-0.1-4-0.1-6
		c-0.1-4.8-0.4-9.7-0.3-14.5c0.1-5.3,1-10.6,3.5-15.4c3.2-6,8.3-8.9,14.9-9.2c2.3-0.1,4.6-0.1,6.7,0.8c2.8,1.2,4.4,3.5,5.9,6
		c2.5,4.3,5,8.7,8,12.7c3.7,4.8,8.8,7.7,14.9,8.5c6.9,0.9,15.2-3.8,16.9-8.6c0.6-1.7,1.1-3.6,1.1-5.5c0.7-16.5,3-32.9,7.4-48.8
		c0.1-0.4,0.2-0.8,0.4-1.2c1.1,0,2.1,0,3.3,0c-0.6,2.4-1.3,4.8-1.9,7.1c-2.8,10.9-4.8,21.9-5.6,33c-0.5,5.8-0.7,11.6-0.7,17.4
		c-0.1,9.9-6.5,15.8-16.1,16.1c-6.2,0.2-11.2-2.4-15.7-6.3c-4.1-3.6-7.4-8-10-12.8c-2.9-5.4-7.7-7.2-13.8-6.1
		c-8.1,1.4-12.4,6.8-14.8,14.2c-1.2,3.8-1.1,7.6-1,11.5c0.1,3.7,0.4,7.4,0.6,11.1c0.2,3.7,0.5,7.3,0.5,11c0,5.1-0.8,10.1-3,14.7
		c-2.9,5.9-7.8,9.2-14.3,9.9c-6.3,0.7-10.8-2.3-13.5-7.9c-5.6-11.6-11.4-23.1-17.2-34.6c-6.3-12.7-12.6-25.4-19-38.1
		c-4-8.1-8-16.2-12.3-24.1c-1.7-3.2-3.8-6.4-6.3-9.1c-4.5-4.9-12.4-4.3-16.7,0.7c-3.9,4.6-5.7,10.2-6.5,16c-0.6,4.3-0.8,8.6-1,12.9
		c-0.4,8.3-0.6,16.6-0.9,24.9c-0.1,4.2-0.2,8.5-0.4,12.7c-0.2,7.5-0.4,15-0.7,22.5c-0.3,6.1-4.5,10.3-10.6,10.8
		c-4.4,0.4-8.2-0.9-11.7-3.6c-5.8-4.4-10.2-10.1-14.8-15.7c-14.1-17.5-26.3-36.2-37.1-55.9c-3.9-7.1-7.8-14.3-12.7-20.9
		c-3-4-6.5-7.6-10.5-10.6C174.3-0.2,174.1-0.3,173.6-0.7z"/>
	
		<linearGradient id="SVGID_14_" gradientUnits="userSpaceOnUse" x1="144.2025" y1="-0.7468" x2="144.2025" y2="220.5433" gradientTransform="matrix(1 0 0 -1 0 216)">
		<stop  offset="0" style="stop-color:#000000;stop-opacity:0"/>
		<stop  offset="1" style="stop-color:#000000;stop-opacity:0.2"/>
	</linearGradient>
	<path class="st13" d="M-0.6,18.9c2.8,3.4,5.5,6.8,8.2,10.3C17.5,41.8,27.1,54.5,37.1,67c5.7,7.2,11.8,14,17.8,20.9
		c3.2,3.6,6.5,7.1,10,10.4c8.5,8.2,17.6,15.9,27.7,22.1c9.2,5.6,19.2,8.4,29.9,9.5c10.6,1.1,20.8-0.8,31-3.5
		c5.4-1.5,10.9-2.7,16.6-3.2c5.1-0.4,10.1,0.2,14.9,1.8c9.1,2.9,17.1,7.6,24,14.1c6.9,6.6,13.5,13.7,20.1,20.7
		c5.4,5.8,10.6,11.7,16,17.5c3.6,3.9,7.4,7.8,11.2,11.6c8,7.7,15.9,15.6,24.8,22.3c2.6,2,5.5,3.6,8.3,5.5c-2.8,0-5.5-0.2-8.2,0.1
		c-2.4,0.2-4.2-0.6-6-2.1c-5.6-4.7-10.7-9.9-15.5-15.3c-4.9-5.5-9.8-11-14.8-16.5c-6.1-6.8-12.2-13.7-18.6-20.2
		c-8.4-8.5-17.8-15.7-28.6-21c-9.1-4.5-18.8-7-29-6.6c-5.3,0.2-10.4,1.4-15.4,2.7c-5.1,1.3-10.2,2.8-15.4,3.7
		c-9.2,1.6-18.3,0.4-27-2.7c-16.2-5.7-30.3-14.8-43.2-26c-11.3-9.8-21-21.1-30-32.9c-7.8-10.3-15.3-20.9-23.1-31.2
		C9.7,42.2,4.6,36.1-0.4,30c-0.2-0.3-0.5-0.7-0.5-1c0-3.3,0-6.6,0-9.9C-0.8,19-0.7,18.9-0.6,18.9z"/>
	
		<linearGradient id="SVGID_15_" gradientUnits="userSpaceOnUse" x1="131.8875" y1="-0.877" x2="131.8875" y2="220.413" gradientTransform="matrix(1 0 0 -1 0 216)">
		<stop  offset="0" style="stop-color:#000000;stop-opacity:0"/>
		<stop  offset="1" style="stop-color:#000000;stop-opacity:0.2"/>
	</linearGradient>
	<path class="st14" d="M264.7,216.7c-2,0-3.8,0.1-5.6,0c-0.4,0-0.9-0.4-1.3-0.7c-5.1-5.3-10.2-10.6-15.4-15.8
		c-8.4-8.4-17.5-15.9-27.8-21.7c-7.6-4.3-15.5-7.6-24.1-9.1c-8-1.4-16-1.2-24,0.2c-7.9,1.4-15.8,3.1-23.8,4.5
		c-14.5,2.5-28.8,1.7-42.7-3.6c-7.8-3-14.7-7.6-21.1-12.9c-12.2-10.1-22.9-21.8-32.3-34.5c-8.4-11.2-16.2-22.9-24.4-34.3
		C15.8,79.8,9.3,71,2.8,62.2c-1-1.3-2.1-2.5-3.2-3.8c-0.3-0.3-0.5-0.8-0.6-1.1c0-3.1,0-6.2,0-9.7c1.3,1.5,2.4,2.8,3.5,4.1
		C11.1,62.3,19,73.4,26.7,84.6c8.2,11.8,16.3,23.8,25.7,34.7c3.6,4.2,7.3,8.4,11.3,12.2c10.1,9.9,21.4,18.3,34.3,24.4
		c8.6,4.1,17.6,6.9,27,7.8c8.7,0.9,17.2-0.4,25.6-2.9c5.6-1.6,11.2-3,16.9-4c8.6-1.5,17.1-0.7,25.4,1.9
		c12.5,3.9,23.6,10.4,33.4,19.1c6.4,5.7,12.5,11.7,18.5,17.8c6.7,6.8,13.2,13.8,19.7,20.6C264.5,216.3,264.5,216.4,264.7,216.7z"/>
	
		<linearGradient id="SVGID_16_" gradientUnits="userSpaceOnUse" x1="122.0206" y1="-0.877" x2="122.0206" y2="220.413" gradientTransform="matrix(1 0 0 -1 0 216)">
		<stop  offset="0" style="stop-color:#000000;stop-opacity:0"/>
		<stop  offset="1" style="stop-color:#000000;stop-opacity:0.2"/>
	</linearGradient>
	<path class="st15" d="M245,216.7c-3.4,0-6.5,0-9.6,0c-0.4,0-0.9-0.2-1.3-0.5c-9.1-6.1-18.7-11.4-29.4-14.4
		c-11.4-3.1-22.9-3.2-34.4-0.6c-9.6,2.2-19.2,4.6-28.9,6.3c-13.5,2.4-26.8,0.8-39.9-3.2c-7-2.1-13.7-4.9-19.3-9.6
		c-3.5-2.8-6.7-6.1-9.8-9.4c-3.9-4.1-7.9-8.1-11.4-12.5c-5.2-6.4-10.3-12.9-15-19.6C35.8,138.8,26.1,124,16,109.5
		c-5.3-7.6-10.9-15-16.4-22.5c-0.3-0.4-0.5-0.8-0.5-1.2c-0.1-3.2,0-6.4,0-9.9c0.4,0.5,0.7,0.8,1,1.1C8,86.9,15,97.5,22,108
		c6,9,11.9,18,18,27c4.4,6.5,9.6,12.5,15,18.2c6.6,7,13.3,13.8,20.1,20.7c3.8,3.8,7.5,7.7,11.5,11.2c5.9,5.1,12.9,8.2,20.4,10.1
		c5.8,1.5,11.7,2.3,17.7,2.5c11.5,0.4,22.6-1.6,33.6-4.6c6-1.7,12.2-3.1,18.3-4.2c9.4-1.7,18.6-0.3,27.6,2.6
		c12.3,4,23.2,10.5,33.2,18.6c2.3,1.9,4.5,3.8,6.8,5.7C244.4,216,244.6,216.2,245,216.7z"/>
	
		<linearGradient id="SVGID_17_" gradientUnits="userSpaceOnUse" x1="383.57" y1="-0.877" x2="383.57" y2="220.413" gradientTransform="matrix(1 0 0 -1 0 216)">
		<stop  offset="0" style="stop-color:#000000;stop-opacity:0"/>
		<stop  offset="1" style="stop-color:#000000;stop-opacity:0.2"/>
	</linearGradient>
	<path class="st16" d="M312.9-0.7c1.5,0,2.8,0,4.3,0c1.2,4.2,2.4,8.5,3.6,12.7c3,10.1,5.8,20.3,9.9,30c3.6,8.6,7.7,16.9,13,24.5
		c2.3,3.4,5.3,6.1,9.1,7.8c5,2.2,9,0.3,10.6-4.9c1.4-4.7,2.6-9.4,3.8-14.1c4.5-18,9-36.1,13.5-54.1c0,0,0-0.1,0-0.1
		c0.5-1.9,0.5-1.9,2.4-1.9c6.2,0,12.4,0,18.6,0c0.8,0,1.3,0.3,1.7,0.9c2.7,4.1,4.7,8.6,6.3,13.3c1.8,5.1,4,9.9,7.5,14.1
		c2.6,3.1,5.9,5.2,10.1,5.4c3.9,0.2,7.4-1.1,10.5-3.3c5.5-3.8,8.5-9.3,10.3-15.5c1.3-4.5,2.1-9.2,3.2-13.8c0.1-0.3,0.1-0.7,0.2-1.1
		c0.9,0,1.7,0,2.6,0c-0.5,2.9-1.1,5.8-1.6,8.7c-1,5.2-1.7,10.4-2.9,15.5c-1.2,5.2-3.3,10-7.1,14c-3.7,3.9-8.2,6.5-13.7,6.7
		c-5.4,0.2-9.5-2.2-12.5-6.6c-3-4.4-5.1-9.2-7.2-14.1c-1.5-3.7-3.2-7.4-6.2-10.2c-3.8-3.6-8.4-5.4-13.6-5.2
		c-2.7,0.1-4.6,1.6-5.6,4.1c-1.4,3.5-2.7,7.1-3.9,10.7c-3.6,11.1-6.3,22.5-8,34c-0.9,6.1-1.6,12.2-2.2,18.3c-0.7,6.7-3.8,10.5-12,11
		c-7.1,0.4-11.9-3.5-15.3-9.3c-3.3-5.5-5.4-11.6-7.6-17.6c-7.2-19.8-14.5-39.5-21.8-59.3C313.1-0.1,313-0.3,312.9-0.7z"/>
	
		<linearGradient id="SVGID_18_" gradientUnits="userSpaceOnUse" x1="703.1915" y1="-0.877" x2="703.1915" y2="220.413" gradientTransform="matrix(1 0 0 -1 0 216)">
		<stop  offset="0" style="stop-color:#000000;stop-opacity:0"/>
		<stop  offset="1" style="stop-color:#000000;stop-opacity:0.2"/>
	</linearGradient>
	<path class="st17" d="M795.2,216.7c-2.6,0-4.8,0-7.1,0c-0.3,0-0.6-0.2-0.8-0.4c-7.1-7.6-14.2-15.3-21.3-22.9
		c-6-6.4-11.9-12.9-17.8-19.3c-1.6-1.7-3.2-3.6-5-4.9c-3.5-2.5-7.1-1.9-10.6,0.2c-5.5,3.2-9,7.9-9.5,14.3c-0.2,3.5,0.1,7,0.2,10.5
		c0.2,5.6,0.9,11.1,0,16.6c-0.3,1.8-1,3.5-1.7,5.2c-0.1,0.3-0.7,0.7-1,0.7c-7.8,0-15.5,0-23.3,0c-0.5,0-1-0.4-1.4-0.7
		c-4.4-4.5-8.7-9.2-13.2-13.6c-9.4-9.2-19.4-17.7-30-25.6c-5.3-4-11.3-6.7-17.9-7.5c-8.7-1.1-15.4,4.4-16.1,13.2
		c-0.5,5.6,0.8,11,2.2,16.3c1.5,5.8,3.2,11.6,4.9,17.4c0,0.1,0,0.2,0,0.4c-0.8,0-1.6,0-2.5,0c-0.8-2.9-1.6-6-2.5-9
		c-2.3-8.1-5.1-16.1-8.4-23.8c-2.3-5.6-1.2-10.6,3-15c3.5-3.7,7.7-6.1,12.8-6.5c4.8-0.4,9.3,0.9,13.7,2.9c5.3,2.4,9.7,6.1,14,9.8
		c11.2,9.6,22.3,19.3,33.5,28.9c2.8,2.4,5.5,5,8.3,7.4c3.9,3.3,8.2,3.6,12.5,0.8c5.7-3.8,8.9-8.9,8.7-16c-0.3-6.5-0.6-13-0.8-19.5
		c-0.2-7.5,1.7-13.9,10.6-18.3c3.9-1.9,7.8-1.2,10.9,1.9c6,5.9,11.8,12,17.7,17.9c3,3.1,6,6.2,9.1,9.3c5.7,5.8,11.4,11.5,17.1,17.2
		C787.2,208.5,791.1,212.5,795.2,216.7z"/>
	
		<linearGradient id="SVGID_19_" gradientUnits="userSpaceOnUse" x1="544.5745" y1="-0.877" x2="544.5745" y2="220.413" gradientTransform="matrix(1 0 0 -1 0 216)">
		<stop  offset="0" style="stop-color:#000000;stop-opacity:0"/>
		<stop  offset="1" style="stop-color:#000000;stop-opacity:0.2"/>
	</linearGradient>
	<path class="st18" d="M612.6-0.7c-1.6,1.8-3.2,3.3-4.6,5c-3.1,3.8-5,8.4-6.8,12.9c-2.6,6.4-5.1,12.8-8,19
		c-2.7,5.9-6.9,10.6-12.8,13.5c-4.7,2.3-9.6,2.9-14.7,2.6c-6.3-0.3-12.3-1.8-17.8-4.7c-4.5-2.3-8.9-5.1-13.3-7.7
		c-6-3.5-11.9-7.2-18-10.5c-5.1-2.7-10.6-4.2-16.5-2.8c-5.7,1.4-9.4,5.2-12.2,10.1c-3.5,6.1-4.9,12.8-5.5,19.7
		c-0.7,8.4,0.7,16.6,1.9,24.8c0,0.1,0,0.2-0.1,0.3c-0.3-0.8-0.6-1.6-1-2.4c-0.3-0.8-0.6-1.6-0.9-2.5c-2.2-6.1-4.2-12.2-5-18.6
		c-1.1-8.7-0.5-17.1,3.6-25c4.5-8.5,11.5-13,21.3-12.8c5,0.1,9.7,1.6,14,3.9c5.8,3,11.4,6.5,17.1,9.7c6.8,3.7,13.5,7.8,20.5,10.9
		c8.8,3.9,17.5,3.1,25.5-2.5c3.7-2.6,6-6.4,8.2-10.2c3.8-6.2,6.3-12.9,9.3-19.4c1.9-4.1,4.3-8,6.4-12.1c0.5-0.9,1.1-1.2,2.1-1.1
		C607.6-0.7,610-0.7,612.6-0.7z"/>
	
		<linearGradient id="SVGID_20_" gradientUnits="userSpaceOnUse" x1="229.935" y1="-0.877" x2="229.935" y2="220.413" gradientTransform="matrix(1 0 0 -1 0 216)">
		<stop  offset="0" style="stop-color:#000000;stop-opacity:0"/>
		<stop  offset="1" style="stop-color:#000000;stop-opacity:0.2"/>
	</linearGradient>
	<path class="st19" d="M195-0.7c2,0,3.7-0.1,5.5,0c0.4,0,1,0.5,1.2,0.9c3.8,6.5,7.4,13.1,11.2,19.6c4.4,7.6,8.9,15.2,13.4,22.7
		c2.6,4.2,5.8,7.8,10.2,10.3c5.6,3.1,12.4,2.7,17.4-1.2c2.9-2.3,3.9-5.3,4-8.8c0.1-11.8,0.8-23.5,1.9-35.2c0.3-2.7,0.5-5.4,0.8-8.2
		c1.4,0,2.8,0,4.4,0c-0.2,1.8-0.4,3.7-0.6,5.5c-0.5,6.8-1.1,13.6-1.5,20.4c-0.5,9-0.9,17.9-1.3,26.9c-0.1,1.8-0.1,3.5-0.2,5.3
		c-0.3,4.5-2.7,7.5-6.7,9.4c-7,3.3-13.2,1.6-18.9-3c-3.2-2.6-5.5-5.9-7.6-9.3c-4.8-7.6-9.3-15.4-13.9-23.1
		c-6.2-10.4-12.3-20.9-18.5-31.3C195.4-0.1,195.3-0.3,195-0.7z"/>
	
		<linearGradient id="SVGID_21_" gradientUnits="userSpaceOnUse" x1="39.3183" y1="-0.877" x2="39.3183" y2="220.413" gradientTransform="matrix(1 0 0 -1 0 216)">
		<stop  offset="0" style="stop-color:#000000;stop-opacity:0"/>
		<stop  offset="1" style="stop-color:#000000;stop-opacity:0.2"/>
	</linearGradient>
	<path class="st20" d="M79.5,216.7c-2.6,0-4.9,0.1-7.2,0c-0.5,0-1-0.5-1.3-0.9c-5.5-5.8-10.7-11.8-15.6-18.2
		C47,186.5,39.5,174.7,32.1,163c-8.2-13-16.2-26.1-25.2-38.5c-2.3-3.2-4.8-6.3-7.2-9.5c-0.3-0.4-0.5-1.1-0.6-1.6
		c-0.1-1.8,0-3.7,0.1-5.5C26.4,143.7,52.7,180.2,79.5,216.7z"/>
	
		<linearGradient id="SVGID_22_" gradientUnits="userSpaceOnUse" x1="575.6248" y1="-0.877" x2="575.6248" y2="220.413" gradientTransform="matrix(1 0 0 -1 0 216)">
		<stop  offset="0" style="stop-color:#000000;stop-opacity:0"/>
		<stop  offset="1" style="stop-color:#000000;stop-opacity:0.2"/>
	</linearGradient>
	<path class="st21" d="M568.4,216.7c4.4-1.6,7.9-4.2,10.5-8.1c2.4-3.7,3.3-7.8,3.5-12.2c0.3-9.3-2.8-17.6-7.8-25.4
		c-4.8-7.4-9.7-14.7-14.3-22.1c-3.5-5.6-5.4-11.6-5.3-18.3c0.2-6.6,2.6-12.3,7.1-17.1c2.1-2.3,4.4-4.3,7.5-5.2
		c3.5-1.1,6.9-0.7,10.2,0.6c5.4,2.1,10.8,4.2,16.2,6.4c0.2,0.1,0.3,0.2,0.3,0.2c-3.2-0.2-6.6-0.6-9.9-0.6c-6,0.1-11.7,1.3-16.8,4.6
		c-7.3,4.7-10,11.9-7.7,20.3c1.3,4.8,3.6,9.2,5.8,13.6c2.8,5.5,5.6,11,8.5,16.6c3.1,6.1,6.3,12.1,9.3,18.2c2.4,4.7,4.4,9.5,4.8,14.9
		c0.3,5.1-1.1,9.5-5,13c-0.3,0.3-0.8,0.5-1.1,0.5C578.9,216.7,573.7,216.7,568.4,216.7z"/>
	
		<linearGradient id="SVGID_23_" gradientUnits="userSpaceOnUse" x1="370.7292" y1="-0.877" x2="370.7292" y2="220.413" gradientTransform="matrix(1 0 0 -1 0 216)">
		<stop  offset="0" style="stop-color:#000000;stop-opacity:0"/>
		<stop  offset="1" style="stop-color:#000000;stop-opacity:0.2"/>
	</linearGradient>
	<path class="st22" d="M409.5,216.7c-2.4,0-4.4,0.1-6.5,0c-0.5,0-1.1-0.5-1.6-0.8c-12.3-8.4-24.7-16.8-37-25.2
		c-2.2-1.5-4.3-3.2-6.7-4.4c-3.2-1.7-6.5-1.1-9.4,0.9c-7,5-10.8,11.8-10.6,20.5c0.1,2.9,0.5,5.9,0.8,8.9c-1.3,0-2.7,0-4.3,0
		c-0.2-1.4-0.5-2.8-0.6-4.3c-0.6-5.2-1.5-10.5-1.6-15.7c-0.1-9.5,3.8-16.7,12.9-19.9c4-1.4,7.7-0.7,11,1.9
		c8.2,6.2,16.3,12.7,24.7,18.6c9.1,6.4,18.4,12.4,27.7,18.6C408.6,216,408.9,216.2,409.5,216.7z"/>
	
		<linearGradient id="SVGID_24_" gradientUnits="userSpaceOnUse" x1="347.925" y1="-0.877" x2="347.925" y2="220.413" gradientTransform="matrix(1 0 0 -1 0 216)">
		<stop  offset="0" style="stop-color:#000000;stop-opacity:0"/>
		<stop  offset="1" style="stop-color:#000000;stop-opacity:0.2"/>
	</linearGradient>
	<path class="st23" d="M372.1-0.7c-0.9,3-1.8,6-2.7,8.9c-3.2,10.3-6.4,20.7-9.6,31c-0.8,2.7-2,5.3-3.9,7.4c-3.7,4-9.2,4-13.4,0.3
		c-4.4-3.8-6.9-8.8-8.6-14.2c-3.3-10.7-6.5-21.4-9.8-32.1c-0.1-0.4-0.2-0.8-0.3-1.2c1.1,0,2.1,0,3.3,0c0.5,2.2,1.1,4.5,1.7,6.8
		c1.1,4.4,2.1,8.9,3.5,13.2c1.4,4.5,3.7,8.6,7.5,11.6c3,2.3,6.6,3.1,10.3,2.7c4.3-0.5,6.9-3.2,8.2-7.1c2.2-6.6,4.2-13.2,6.4-19.8
		c0.7-2.2,1.4-4.4,2.1-6.6c0.1-0.3,0.6-0.7,0.9-0.7C369-0.8,370.5-0.7,372.1-0.7z"/>
	
		<linearGradient id="SVGID_25_" gradientUnits="userSpaceOnUse" x1="710.235" y1="-0.877" x2="710.235" y2="220.413" gradientTransform="matrix(1 0 0 -1 0 216)">
		<stop  offset="0" style="stop-color:#000000;stop-opacity:0"/>
		<stop  offset="1" style="stop-color:#000000;stop-opacity:0.2"/>
	</linearGradient>
	<path class="st24" d="M755.8-0.7c-1.3,1.5-2.5,2.8-3.6,4c-4.5,4.7-9.3,8.9-15.3,11.7c-6.8,3.2-14,4.6-21.6,4.1
		c-7-0.4-13.6-2.6-19.9-5.4c-8-3.5-15.9-7.3-23.9-10.9c-2.3-1.1-4.6-2.2-6.9-3.5c2,0,4.1,0.2,6.1,0c4.3-0.4,8.2,0.8,12,2.7
		c7.1,3.5,14.5,6.5,22.3,8.3c15.3,3.4,28.7-0.1,40.5-10.4c0.3-0.3,0.8-0.4,1.2-0.6c0.1-0.1,0.3,0,0.5,0C750-0.7,752.7-0.7,755.8-0.7
		z"/>
	
		<linearGradient id="SVGID_26_" gradientUnits="userSpaceOnUse" x1="232.4" y1="-0.877" x2="232.4" y2="220.413" gradientTransform="matrix(1 0 0 -1 0 216)">
		<stop  offset="0" style="stop-color:#000000;stop-opacity:0"/>
		<stop  offset="1" style="stop-color:#000000;stop-opacity:0.2"/>
	</linearGradient>
	<path class="st25" d="M211.8-0.7c2.3,0,4.4,0,6.4,0c0.4,0,0.8,0.4,1.1,0.7c2,2.5,3.8,5.2,6,7.6c2.3,2.4,5,4.5,8.3,5.3
		c6.7,1.7,12.5-2.5,13.4-9.5c0.2-1.4,0.4-2.8,0.6-4.1c1.8,0,3.5,0,5.4,0c-0.2,2.4-0.4,4.7-0.6,7c-0.2,3.2-0.4,6.4-0.6,9.6
		c-0.3,6.1-3.4,9-8.5,10.7c-5.9,2-11.1,0.4-15.9-3.2c-2.8-2.1-4.8-4.9-6.5-7.8c-3.1-5.2-6-10.5-8.9-15.7
		C212-0.2,211.9-0.4,211.8-0.7z"/>
	
		<linearGradient id="SVGID_27_" gradientUnits="userSpaceOnUse" x1="868.1251" y1="-0.877" x2="868.1251" y2="220.413" gradientTransform="matrix(1 0 0 -1 0 216)">
		<stop  offset="0" style="stop-color:#000000;stop-opacity:0"/>
		<stop  offset="1" style="stop-color:#000000;stop-opacity:0.2"/>
	</linearGradient>
	<path class="st26" d="M895.2,216.7c-2.3,0-4.4,0-6.5,0c-2.1,0-4.2,0.1-6.4,0c-0.7,0-1.4-0.2-2-0.6c-4.1-2.8-8.5-4.9-13.5-5.5
		c-6.2-0.8-11.5,0.9-15.7,5.7c-0.2,0.2-0.5,0.5-0.7,0.5c-3,0-6.1,0-9.2,0c0.7-3.1,1.9-5.9,3.7-8.4c4.1-5.7,9.7-8.6,16.6-8.9
		c8.5-0.5,15.9,2.5,22.7,7.3c3.9,2.8,7.3,6,10.7,9.5C894.8,216.3,894.9,216.4,895.2,216.7z"/>
	
		<linearGradient id="SVGID_28_" gradientUnits="userSpaceOnUse" x1="27.6993" y1="-0.877" x2="27.6993" y2="220.413" gradientTransform="matrix(1 0 0 -1 0 216)">
		<stop  offset="0" style="stop-color:#000000;stop-opacity:0"/>
		<stop  offset="1" style="stop-color:#000000;stop-opacity:0.2"/>
	</linearGradient>
	<path class="st27" d="M56.3,216.7c-3.1,0-5.8,0-8.6,0c-0.4,0-1-0.5-1.2-0.9c-4.9-8.1-9.8-16.2-14.7-24.3
		c-7.2-11.7-14.3-23.4-21.6-35c-3.2-5.1-7-9.7-10.4-14.6c-0.3-0.5-0.6-1.1-0.6-1.7c-0.1-1.9,0-3.8,0-5.6c0.1-0.1,0.2-0.1,0.3-0.2
		C18.3,161.7,37.2,189.1,56.3,216.7z"/>
	
		<linearGradient id="SVGID_29_" gradientUnits="userSpaceOnUse" x1="658.2648" y1="-0.877" x2="658.2648" y2="220.413" gradientTransform="matrix(1 0 0 -1 0 216)">
		<stop  offset="0" style="stop-color:#000000;stop-opacity:0"/>
		<stop  offset="1" style="stop-color:#000000;stop-opacity:0.2"/>
	</linearGradient>
	<path class="st28" d="M637.3,216.5c-0.2,0.1-0.3,0.1-0.4,0.1c-1.2,0-2.7,0.4-3.5-0.2c-0.7-0.5-0.7-2.1-1-3.2
		c-1.1-4.2-2-8.4-3.3-12.5c-1.7-5.4,0.4-9.9,4.4-13.2c6.2-5.2,13-5,20-2.1c4.5,1.9,8.4,4.7,11.9,8.1c4.2,4.1,8.5,8.3,12.7,12.5
		c3.2,3.2,6.3,6.6,9.4,9.9c0.1,0.1,0.2,0.3,0.4,0.6c-1.4,0-2.7,0-4,0c-0.3,0-0.6-0.3-0.8-0.6c-4.8-4.9-9.4-9.9-14.2-14.8
		c-3.9-3.9-8.2-7.4-13.5-9.3c-6.3-2.2-12-1.4-16.9,3.3c-3.2,3.1-4,7-3.1,11.3C636.2,209.9,636.7,213.2,637.3,216.5z"/>
	
		<linearGradient id="SVGID_30_" gradientUnits="userSpaceOnUse" x1="754.1218" y1="-0.877" x2="754.1218" y2="220.413" gradientTransform="matrix(1 0 0 -1 0 216)">
		<stop  offset="0" style="stop-color:#000000;stop-opacity:0"/>
		<stop  offset="1" style="stop-color:#000000;stop-opacity:0.2"/>
	</linearGradient>
	<path class="st29" d="M736.7,216.6c-1.5,0-2.9,0-4.4,0c-0.1-1-0.2-2-0.2-3c0.1-3.8,0-7.6,0.5-11.4c0.7-5.1,3.7-8.9,8-11.5
		c1.7-1,3.5-1.9,5.3-2.4c4-1,7.4,0.4,9.9,3.5c6.7,8.1,13.4,16.2,20,24.3c0.1,0.1,0.1,0.2,0.3,0.4c-1.7,0-3.4,0-5,0
		c-0.3,0-0.7-0.4-1-0.8c-3.4-4.4-6.8-8.8-10.2-13.1c-2.2-2.7-5.1-3.7-8.6-3c-7.8,1.6-13.8,8.2-14.7,16.2
		C736.7,216.1,736.7,216.4,736.7,216.6z"/>
	
		<linearGradient id="SVGID_31_" gradientUnits="userSpaceOnUse" x1="547.6949" y1="-0.877" x2="547.6949" y2="220.413" gradientTransform="matrix(1 0 0 -1 0 216)">
		<stop  offset="0" style="stop-color:#000000;stop-opacity:0"/>
		<stop  offset="1" style="stop-color:#000000;stop-opacity:0.2"/>
	</linearGradient>
	<path class="st30" d="M521.4-0.7c1.5,0,2.8-0.1,4,0c0.4,0,0.9,0.5,1.2,0.9c2.8,3,6.2,5.2,10.2,6.3c4.8,1.4,9.6,1,14.3-0.4
		c4.6-1.4,8.7-3.5,12.6-6.2c0.5-0.3,1.2-0.5,1.8-0.6c2.8-0.1,5.7,0,8.7,0c-1.5,1.5-2.8,3-4.2,4.2c-4.3,3.9-8.9,7.2-14.2,9.4
		c-6.1,2.4-12.3,3.3-18.7,1.1c-4.7-1.6-8.2-4.8-11.2-8.7C524.3,3.4,522.9,1.5,521.4-0.7z"/>
	
		<linearGradient id="SVGID_32_" gradientUnits="userSpaceOnUse" x1="369.695" y1="-0.877" x2="369.695" y2="220.413" gradientTransform="matrix(1 0 0 -1 0 216)">
		<stop  offset="0" style="stop-color:#000000;stop-opacity:0"/>
		<stop  offset="1" style="stop-color:#000000;stop-opacity:0.2"/>
	</linearGradient>
	<path class="st31" d="M390.7,216.7c-2.9,0-5.6,0-8.2,0c-0.5,0-1-0.2-1.4-0.5c-1.9-1-3.7-2.1-5.6-3.1c-5.3-2.8-10.3-2-14.6,2.2
		c-1.1,1.1-2.1,1.5-3.7,1.5c-2.8-0.1-5.6,0-8.5,0c0.8-2.4,2-4.5,3.4-6.4c2.1-2.8,4.4-5.4,7.7-6.8c3.6-1.5,7-0.6,10.2,1.2
		c6.8,3.8,13.5,7.7,20.2,11.5C390.3,216.3,390.4,216.4,390.7,216.7z"/>
	
		<linearGradient id="SVGID_33_" gradientUnits="userSpaceOnUse" x1="429.385" y1="-0.877" x2="429.385" y2="220.413" gradientTransform="matrix(1 0 0 -1 0 216)">
		<stop  offset="0" style="stop-color:#000000;stop-opacity:0"/>
		<stop  offset="1" style="stop-color:#000000;stop-opacity:0.2"/>
	</linearGradient>
	<path class="st32" d="M443.6-0.6c-0.8,2.5-1.4,4.9-2.4,7.2c-1.5,3.3-4.5,4.6-8,4.8c-8.2,0.4-15-4-18-11.5c0-0.1,0-0.2,0-0.4
		C424.6-0.6,434-0.6,443.6-0.6z"/>
	
		<linearGradient id="SVGID_34_" gradientUnits="userSpaceOnUse" x1="17.4492" y1="-0.877" x2="17.4492" y2="220.413" gradientTransform="matrix(1 0 0 -1 0 216)">
		<stop  offset="0" style="stop-color:#000000;stop-opacity:0"/>
		<stop  offset="1" style="stop-color:#000000;stop-opacity:0.2"/>
	</linearGradient>
	<path class="st33" d="M-0.6,160c12.1,18.8,24.2,37.6,36.4,56.7c-2,0-3.8,0-5.5,0c-0.3,0-0.6-0.5-0.8-0.9
		c-4.7-8.3-9.3-16.6-14.1-24.8c-4.7-8.1-10-15.7-15.8-23.1c-0.2-0.2-0.4-0.5-0.4-0.8c0-2.3,0-4.7,0-7C-0.8,160.1-0.7,160-0.6,160z"
		/>
	
		<linearGradient id="SVGID_35_" gradientUnits="userSpaceOnUse" x1="661.11" y1="-0.877" x2="661.11" y2="220.413" gradientTransform="matrix(1 0 0 -1 0 216)">
		<stop  offset="0" style="stop-color:#000000;stop-opacity:0"/>
		<stop  offset="1" style="stop-color:#000000;stop-opacity:0.2"/>
	</linearGradient>
	<path class="st34" d="M676.2,216.9c-4.2-0.2-8.1-0.4-12-0.6c-0.9,0-1.8,0.1-2.7,0.1c-5.1,0.1-10.2,0.2-15.4,0.4
		c0.6-3.2,1.9-5.6,4.3-7.4c5-3.5,12.5-3.4,17.7,0.4c2.7,2,5.2,4.3,7.7,6.4C675.9,216.3,675.9,216.4,676.2,216.9z"/>
	
		<linearGradient id="SVGID_36_" gradientUnits="userSpaceOnUse" x1="9.9442" y1="-0.877" x2="9.9442" y2="220.413" gradientTransform="matrix(1 0 0 -1 0 216)">
		<stop  offset="0" style="stop-color:#000000;stop-opacity:0"/>
		<stop  offset="1" style="stop-color:#000000;stop-opacity:0.2"/>
	</linearGradient>
	<path class="st35" d="M-0.9,185.1c8.2,10.1,15.1,20.6,21.7,31.6c-2,0-3.9,0-5.7,0c-0.2,0-0.5-0.3-0.6-0.6
		c-4.6-7.4-9.5-14.6-14.9-21.4c-0.2-0.2-0.4-0.6-0.4-0.8C-0.9,191-0.9,188.2-0.9,185.1z"/>
	
		<linearGradient id="SVGID_37_" gradientUnits="userSpaceOnUse" x1="345.585" y1="-0.877" x2="345.585" y2="220.413" gradientTransform="matrix(1 0 0 -1 0 216)">
		<stop  offset="0" style="stop-color:#000000;stop-opacity:0"/>
		<stop  offset="1" style="stop-color:#000000;stop-opacity:0.2"/>
	</linearGradient>
	<path class="st36" d="M335.4-0.7c6.8,0,13.5,0,20.4,0c-1.8,2.8-4.4,4.1-7.4,4.5C343.4,4.4,338.9,3.2,335.4-0.7z"/>
	
		<linearGradient id="SVGID_38_" gradientUnits="userSpaceOnUse" x1="119.635" y1="-0.877" x2="119.635" y2="220.413" gradientTransform="matrix(1 0 0 -1 0 216)">
		<stop  offset="0" style="stop-color:#000000;stop-opacity:0"/>
		<stop  offset="1" style="stop-color:#000000;stop-opacity:0.2"/>
	</linearGradient>
	<path class="st37" d="M108.8-0.7c7.2,0,14.5,0,21.7,0C123.3,1.5,116,1.3,108.8-0.7z"/>
	
		<linearGradient id="SVGID_39_" gradientUnits="userSpaceOnUse" x1="532.725" y1="-0.877" x2="532.725" y2="220.413" gradientTransform="matrix(1 0 0 -1 0 216)">
		<stop  offset="0" style="stop-color:#000000;stop-opacity:0"/>
		<stop  offset="1" style="stop-color:#000000;stop-opacity:0.2"/>
	</linearGradient>
	<path class="st38" d="M544.6,216.6c-7.9,0-15.8,0-23.7,0c0-0.1,0-0.2-0.1-0.3c1.5-0.3,2.9-0.8,4.4-0.8c3.2-0.1,6.3-0.1,9.5,0.1
		c3.3,0.2,6.6,0.6,9.9,0.9C544.6,216.5,544.6,216.6,544.6,216.6z"/>
	
		<linearGradient id="SVGID_40_" gradientUnits="userSpaceOnUse" x1="1.035" y1="-0.877" x2="1.035" y2="220.413" gradientTransform="matrix(1 0 0 -1 0 216)">
		<stop  offset="0" style="stop-color:#000000;stop-opacity:0"/>
		<stop  offset="1" style="stop-color:#000000;stop-opacity:0.2"/>
	</linearGradient>
	<path class="st39" d="M-0.9,216.6c0-1.5,0-2.9,0-4.7c1.3,1.7,2.5,3.1,3.8,4.7C1.6,216.6,0.4,216.6-0.9,216.6z"/>
</g>
</svg>
