<svg xmlns="http://www.w3.org/2000/svg" width="239.3" height="117.161" viewBox="0 0 239.3 117.161">
  <g id="Hero_Header" data-name="Hero Header" transform="translate(-86.22 -117.72)">
    <path id="Path_202" data-name="Path 202" d="M4,6.4A4.38,4.38,0,0,1,2.22,2.886V-21.978A4.38,4.38,0,0,1,4-25.493a6.794,6.794,0,0,1,4.366-1.443,6.644,6.644,0,0,1,4.329,1.443A4.35,4.35,0,0,1,14.5-21.978v9.472H9.879v-9.916a1.021,1.021,0,0,0-.444-.851,1.534,1.534,0,0,0-1.073-.37,1.534,1.534,0,0,0-1.073.37,1.021,1.021,0,0,0-.444.851V3.33a1.021,1.021,0,0,0,.444.851,1.741,1.741,0,0,0,2.146,0,1.021,1.021,0,0,0,.444-.851V-6.586H14.5V2.886A4.35,4.35,0,0,1,12.691,6.4,6.644,6.644,0,0,1,8.362,7.844,6.794,6.794,0,0,1,4,6.4ZM30.784,2.886A4.35,4.35,0,0,1,28.971,6.4a6.644,6.644,0,0,1-4.329,1.443A6.794,6.794,0,0,1,20.276,6.4,4.38,4.38,0,0,1,18.5,2.886V-21.978a4.38,4.38,0,0,1,1.776-3.515,6.794,6.794,0,0,1,4.366-1.443,6.644,6.644,0,0,1,4.329,1.443,4.35,4.35,0,0,1,1.813,3.515ZM26.159-22.422a1.021,1.021,0,0,0-.444-.851,1.534,1.534,0,0,0-1.073-.37,1.534,1.534,0,0,0-1.073.37,1.021,1.021,0,0,0-.444.851V3.33a1.021,1.021,0,0,0,.444.851,1.741,1.741,0,0,0,2.146,0,1.021,1.021,0,0,0,.444-.851Zm13.246-4.07V3.626h4.551v3.7h-9.1V-26.492Zm11.766,0V3.626h4.551v3.7h-9.1V-26.492ZM67.266,3.663V7.326H58.2V-26.492h9.065v3.7H62.752v11.4h3v3.7h-3V3.663ZM73.445,6.4a4.38,4.38,0,0,1-1.776-3.515V-21.978a4.38,4.38,0,0,1,1.776-3.515,6.794,6.794,0,0,1,4.366-1.443,6.644,6.644,0,0,1,4.329,1.443,4.35,4.35,0,0,1,1.813,3.515v9.472H79.328v-9.916a1.021,1.021,0,0,0-.444-.851,1.534,1.534,0,0,0-1.073-.37,1.534,1.534,0,0,0-1.073.37,1.021,1.021,0,0,0-.444.851V3.33a1.021,1.021,0,0,0,.444.851,1.741,1.741,0,0,0,2.146,0,1.021,1.021,0,0,0,.444-.851V-6.586h4.625V2.886A4.35,4.35,0,0,1,82.14,6.4a6.644,6.644,0,0,1-4.329,1.443A6.794,6.794,0,0,1,73.445,6.4Zm21.09.925H89.984V-22.829H86.95v-3.663H97.569v3.663H94.535ZM106.3-26.492V7.326H101.75V-26.492ZM122.84,2.516a4.255,4.255,0,0,1-1.813,3.4,5.863,5.863,0,0,1-1.868,1.073,7.751,7.751,0,0,1-2.46.333h-6.142V-26.492H116.7a8.742,8.742,0,0,1,2.535.3,5.71,5.71,0,0,1,1.831,1,4.312,4.312,0,0,1,1.351,1.628,4.554,4.554,0,0,1,.425,1.924v8.066a3.2,3.2,0,0,1-.259,1.388,3.779,3.779,0,0,1-.555.87,3.006,3.006,0,0,1-.777.629,2.381,2.381,0,0,1,.777.481,3.045,3.045,0,0,1,.555.832,3.2,3.2,0,0,1,.259,1.388Zm-5.069,1.258a.989.989,0,0,0,.444-.814V-7.363q0-1.147-.758-1.369a8.682,8.682,0,0,0-2.275-.222V4.107H116.7A1.737,1.737,0,0,0,117.771,3.774Zm.444-25.863a.989.989,0,0,0-.444-.814,1.534,1.534,0,0,0-1.073-.37h-1.517v10.767a4.868,4.868,0,0,0,2.4-.352,1.459,1.459,0,0,0,.629-1.351Zm13.172-4.4V3.626h4.551v3.7h-9.1V-26.492Zm16.1,30.155V7.326h-9.065V-26.492h9.065v3.7h-4.514v11.4h3v3.7h-3V3.663Zm16.206-11.4V7.326h-4.551V-26.492h9.1v3.663h-4.551v11.4h2.7v3.7ZM176.12-26.492V7.326h-4.551V-26.492Zm6.993,32.93A4.35,4.35,0,0,1,181.3,2.923V-21.941a4.35,4.35,0,0,1,1.813-3.515,6.644,6.644,0,0,1,4.329-1.443,6.644,6.644,0,0,1,4.329,1.443,4.35,4.35,0,0,1,1.813,3.515V-13.1h-4.625v-9.287a1.021,1.021,0,0,0-.444-.851,1.534,1.534,0,0,0-1.073-.37,1.534,1.534,0,0,0-1.073.37,1.021,1.021,0,0,0-.444.851V3.367a1.021,1.021,0,0,0,.444.851,1.741,1.741,0,0,0,2.146,0,1.021,1.021,0,0,0,.444-.851V-7.7h-.666v-3.663l5.291-.037V2.923a4.35,4.35,0,0,1-1.813,3.515,7.215,7.215,0,0,1-8.658,0Zm22.9-32.93h4.625V2.849a4.35,4.35,0,0,1-1.813,3.515A6.644,6.644,0,0,1,204.5,7.807a6.738,6.738,0,0,1-4.329-1.443,4.38,4.38,0,0,1-1.776-3.515V-26.492h4.588V3.293a1,1,0,0,0,.481.851,1.569,1.569,0,0,0,1.036.37,1.717,1.717,0,0,0,1.073-.37,1.021,1.021,0,0,0,.444-.851ZM222.925,7.326V-4.958a1.459,1.459,0,0,0-.629-1.35,4.868,4.868,0,0,0-2.4-.352V7.326h-4.625V-26.492h6.142a9.47,9.47,0,0,1,2.535.3,5.212,5.212,0,0,1,1.943,1.036,3.9,3.9,0,0,1,1.295,1.591,4.857,4.857,0,0,1,.37,1.887v10.508a3.2,3.2,0,0,1-.259,1.387,3.044,3.044,0,0,1-.555.833,1.766,1.766,0,0,1-.777.481,3.006,3.006,0,0,1,.777.629,3.673,3.673,0,0,1,.555.888,3.228,3.228,0,0,1,.259,1.369V7.326Zm0-19.129q-.037-1.036-.018-2.775t.018-3.4v-4.107a1.021,1.021,0,0,0-.444-.851,1.737,1.737,0,0,0-1.073-.333h-1.517v13.061q.777,0,1.35-.037a3.113,3.113,0,0,0,.943-.185,1.09,1.09,0,0,0,.555-.462A1.809,1.809,0,0,0,222.925-11.8Zm18.13,15.466V7.326H231.99V-26.492h9.065v3.7h-4.514v11.4h3v3.7h-3V3.663Z" transform="translate(84 227)" fill="#fff"/>
    <path id="Path_129" data-name="Path 129" d="M26.8-54.56c-2.56-2-5.28-2.72-9.6-2.72H4V15.76h9.92V-15.36c6.56,0,16.64-.56,16.64-8.8V-46.88A9.45,9.45,0,0,0,26.8-54.56ZM20.48-25.52c0,3.28-2.08,3.44-6.56,3.44V-50.32H17.2a4.055,4.055,0,0,1,2.4.72,2.536,2.536,0,0,1,.96,2C20.56-37.92,20.48-33.6,20.48-25.52ZM54.16,7.92H44.4V-16.64h6.48v-8H44.4V-49.28h9.76v-8H34.56V15.84h19.6Zm19.92,7.92,4.96-36.08L84,15.84h9.84l7.6-73.12H91.6L88.4-20.72,84-57.28H74.08L69.76-20.72,66.4-57.28H56.56l7.68,73.12ZM126,12.96a9.305,9.305,0,0,0,3.76-7.6V-46.88A9.346,9.346,0,0,0,126-54.56c-2.56-2.08-4.88-2.72-9.6-2.72H103.2V15.84h13.2C120.72,15.84,123.44,14.96,126,12.96ZM113.12-50.4h3.28a3.627,3.627,0,0,1,2.4.8,2.025,2.025,0,0,1,.88,1.76V6.32a2.025,2.025,0,0,1-.88,1.76,4.113,4.113,0,0,1-2.4.8h-3.28Zm31.68-6.88h-9.84V15.84h9.84Zm25.6,65.2h-9.76V-16.64h6.48v-8h-6.48V-49.28h9.76v-8H150.8V15.84h19.6Zm26.72-62.48c-2.56-2-5.28-2.72-9.6-2.72h-13.2V15.76h9.92V-15.36c6.56,0,16.64-.56,16.64-8.8V-46.88A9.45,9.45,0,0,0,197.12-54.56ZM190.8-25.52c0,3.28-2.08,3.44-6.56,3.44V-50.32h3.28a4.055,4.055,0,0,1,2.4.72,2.536,2.536,0,0,1,.96,2C190.88-37.92,190.8-33.6,190.8-25.52Zm25.12-31.76h-9.84V15.84h9.84Zm25.6,65.2h-9.76V-16.64h6.48v-8h-6.48V-49.28h9.76v-8h-19.6V15.84h19.6Z" transform="translate(84 175)" fill="#fff"/>
  </g>
</svg>
